<svg width="304" height="63" viewBox="0 0 304 63" fill="none" xmlns="http://www.w3.org/2000/svg">
<g clip-path="url(#clip0_211_1528)">
<path d="M91.7207 25.3193H100.311C107.922 25.3193 111.579 27.9996 111.579 33.8252C111.579 39.6507 107.922 42.5009 100.141 42.5009H94.7831V53.5596H91.7207V25.3193ZM100.184 39.9078C105.966 39.9078 108.434 38.2491 108.434 33.8274C108.434 29.4057 106.136 27.9147 100.311 27.9147H94.7831V39.9078H100.184Z" fill="#231F20"/>
<path d="M112.223 43.6076C112.223 37.3975 116.262 33.1033 121.962 33.1033C127.662 33.1033 131.19 37.0153 131.19 43.3952V44.5018H115.156C115.368 48.6686 117.921 51.4763 122.045 51.4763C126.169 51.4763 127.87 49.5203 128.722 47.2245L131.315 48.2036C130.123 51.3087 127.273 53.9442 122.043 53.9442C115.963 53.9442 112.219 49.7327 112.219 43.6098L112.223 43.6076ZM128.127 42.2037C128 37.9497 125.662 35.5265 121.918 35.5265C118.174 35.5265 115.496 38.1621 115.156 42.2037H128.127Z" fill="#231F20"/>
<path d="M133.405 43.6076C133.405 37.3975 137.444 33.1033 143.144 33.1033C148.844 33.1033 152.371 37.0153 152.371 43.3952V44.5018H136.338C136.55 48.6686 139.103 51.4763 143.227 51.4763C147.351 51.4763 149.052 49.5203 149.904 47.2245L152.497 48.2036C151.305 51.3087 148.455 53.9442 143.225 53.9442C137.145 53.9442 133.4 49.7327 133.4 43.6098L133.405 43.6076ZM149.309 42.2037C149.182 37.9497 146.843 35.5265 143.099 35.5265C139.355 35.5265 136.677 38.1621 136.338 42.2037H149.309Z" fill="#231F20"/>
<path d="M155.773 24.8948H158.708V43.4802L168.235 33.4855H171.722L164.366 40.9273L172.104 53.5575H168.83L162.365 42.9258L158.708 46.7528V53.5575H155.773V24.8948Z" fill="#231F20"/>
<path d="M182.272 25.3193H185.335V53.5596H182.272V25.3193Z" fill="#231F20"/>
<path d="M190.013 33.4855H192.948V38.2068C194.012 34.9319 196.265 33.0608 199.752 33.0608C204.003 33.0608 206.684 35.9087 206.684 41.0145V53.5597H203.706V41.1844C203.706 37.5697 202.005 35.6986 198.985 35.6986C194.988 35.6986 192.99 39.016 192.99 44.884V53.5597H190.013V33.4855Z" fill="#231F20"/>
<path d="M209.324 50.0724L211.747 48.6686C213.363 50.7945 215.874 51.6461 218.127 51.6461C220.892 51.6461 222.635 50.3272 222.635 48.1589C222.635 45.9905 220.085 45.3936 216.725 44.5867C212.814 43.6925 209.879 42.6306 209.879 38.8885C209.879 35.5287 212.941 33.063 216.98 33.063C220.382 33.063 223.105 34.5093 225.146 36.8901L222.765 38.3364C221.319 36.5078 219.193 35.4862 216.94 35.4862C214.387 35.4862 212.729 36.7626 212.729 38.7186C212.729 40.887 214.515 41.314 218.172 42.0785C221.744 42.8855 225.485 44.1194 225.485 47.9465C225.485 51.5612 222.466 54.0694 218.044 54.0694C214.472 54.0694 211.197 52.6655 209.326 50.0724H209.324Z" fill="#231F20"/>
<path d="M228.295 26.5535H231.655V29.9133H228.295V26.5535ZM228.465 33.4855H231.485V53.5597H228.465V33.4855Z" fill="#231F20"/>
<path d="M234.12 57.5566C234.12 55.3883 235.736 53.7721 238.289 52.9628C235.991 52.4934 234.632 51.1767 234.632 49.4331C234.632 47.6045 235.951 46.3281 238.289 45.8184C236.545 44.5419 235.439 42.5435 235.439 40.1627C235.439 35.9512 238.968 32.8484 243.604 32.8484C246.665 32.8484 249.175 34.2098 250.536 36.3781C251.133 34.677 252.322 33.4855 254.535 33.4855V36.5905C253.301 36.1658 252.07 36.5056 251.218 37.8647C251.473 38.5867 251.6 39.396 251.6 40.2052C251.6 44.5844 248.368 47.3921 243.435 47.3921C242.413 47.3921 241.479 47.2647 240.627 46.9674C238.162 46.7975 237.225 47.7744 237.225 48.9234C237.225 50.2848 238.799 51.0918 241.434 51.0918H245.048C251.428 51.0918 254.363 52.8779 254.363 56.7049C254.363 60.532 250.536 62.9999 243.902 62.9999C237.267 62.9999 234.12 61.1713 234.12 57.5566ZM251.685 56.8748C251.685 54.579 249.857 53.7273 244.881 53.7273H241.906C238.928 53.9822 236.76 55.3436 236.76 57.2996C236.76 59.5529 239.143 60.7019 243.946 60.7019C248.75 60.7019 251.687 59.298 251.687 56.8748H251.685ZM248.878 40.2477V40.1627C248.878 37.1851 246.709 35.1867 243.562 35.1867C240.415 35.1867 238.246 37.1851 238.246 40.1203V40.2052C238.246 43.1806 240.287 45.0539 243.477 45.0539C246.837 45.0539 248.878 43.2253 248.878 40.2499V40.2477Z" fill="#231F20"/>
<path d="M257.385 24.8948H260.277V38.0347C261.426 34.8872 263.594 33.1011 266.997 33.1011C271.248 33.1011 273.971 35.9065 273.971 41.01V53.5553H270.951V41.1799C270.951 37.5652 269.25 35.6942 266.272 35.6942C262.276 35.6942 260.277 39.0115 260.277 44.8796V53.5553H257.385V24.8948Z" fill="#231F20"/>
<path d="M278.906 48.7961V36.0385H275.292V33.4878H278.906V29.2785L281.799 27.3225V33.4878H286.562V36.0385H281.756V48.4585C281.756 50.2447 282.396 50.9667 284.139 51.0092H286.477V53.5598H283.458C279.97 53.4749 278.949 51.9436 278.906 48.7961Z" fill="#231F20"/>
<path d="M287.841 50.0724L290.264 48.6686C291.88 50.7945 294.39 51.6461 296.643 51.6461C299.408 51.6461 301.152 50.3272 301.152 48.1589C301.152 45.9905 298.602 45.3936 295.242 44.5867C291.33 43.6925 288.395 42.6306 288.395 38.8885C288.395 35.5287 291.458 33.063 295.497 33.063C298.899 33.063 301.621 34.5093 303.662 36.8901L301.282 38.3364C299.835 36.5078 297.71 35.4862 295.456 35.4862C292.904 35.4862 291.245 36.7626 291.245 38.7186C291.245 40.887 293.031 41.314 296.688 42.0785C300.26 42.8855 304.002 44.1194 304.002 47.9465C304.002 51.5612 300.982 54.0694 296.561 54.0694C292.989 54.0694 289.714 52.6655 287.843 50.0724H287.841Z" fill="#231F20"/>
<path d="M91.7207 25.3193H100.311C107.922 25.3193 111.579 27.9996 111.579 33.8252C111.579 39.6507 107.922 42.5009 100.141 42.5009H94.7831V53.5596H91.7207V25.3193ZM100.184 39.9078C105.966 39.9078 108.434 38.2491 108.434 33.8274C108.434 29.4057 106.136 27.9147 100.311 27.9147H94.7831V39.9078H100.184Z" fill="#231F20"/>
<path d="M112.223 43.6076C112.223 37.3975 116.262 33.1033 121.962 33.1033C127.662 33.1033 131.19 37.0153 131.19 43.3952V44.5018H115.156C115.368 48.6686 117.921 51.4763 122.045 51.4763C126.169 51.4763 127.87 49.5203 128.722 47.2245L131.315 48.2036C130.123 51.3087 127.273 53.9442 122.043 53.9442C115.963 53.9442 112.219 49.7327 112.219 43.6098L112.223 43.6076ZM128.127 42.2037C128 37.9497 125.662 35.5265 121.918 35.5265C118.174 35.5265 115.496 38.1621 115.156 42.2037H128.127Z" fill="#231F20"/>
<path d="M133.405 43.6076C133.405 37.3975 137.444 33.1033 143.144 33.1033C148.844 33.1033 152.371 37.0153 152.371 43.3952V44.5018H136.338C136.55 48.6686 139.103 51.4763 143.227 51.4763C147.351 51.4763 149.052 49.5203 149.904 47.2245L152.497 48.2036C151.305 51.3087 148.455 53.9442 143.225 53.9442C137.145 53.9442 133.4 49.7327 133.4 43.6098L133.405 43.6076ZM149.309 42.2037C149.182 37.9497 146.843 35.5265 143.099 35.5265C139.355 35.5265 136.677 38.1621 136.338 42.2037H149.309Z" fill="#231F20"/>
<path d="M155.773 24.8948H158.708V43.4802L168.235 33.4855H171.722L164.366 40.9273L172.104 53.5575H168.83L162.365 42.9258L158.708 46.7528V53.5575H155.773V24.8948Z" fill="#231F20"/>
<path d="M182.272 25.3193H185.335V53.5596H182.272V25.3193Z" fill="#231F20"/>
<path d="M190.013 33.4855H192.948V38.2068C194.012 34.9319 196.265 33.0608 199.752 33.0608C204.003 33.0608 206.684 35.9087 206.684 41.0145V53.5597H203.706V41.1844C203.706 37.5697 202.005 35.6986 198.985 35.6986C194.988 35.6986 192.99 39.016 192.99 44.884V53.5597H190.013V33.4855Z" fill="#231F20"/>
<path d="M209.324 50.0724L211.747 48.6686C213.363 50.7945 215.874 51.6461 218.127 51.6461C220.892 51.6461 222.635 50.3272 222.635 48.1589C222.635 45.9905 220.085 45.3936 216.725 44.5867C212.814 43.6925 209.879 42.6306 209.879 38.8885C209.879 35.5287 212.941 33.063 216.98 33.063C220.382 33.063 223.105 34.5093 225.146 36.8901L222.765 38.3364C221.319 36.5078 219.193 35.4862 216.94 35.4862C214.387 35.4862 212.729 36.7626 212.729 38.7186C212.729 40.887 214.515 41.314 218.172 42.0785C221.744 42.8855 225.485 44.1194 225.485 47.9465C225.485 51.5612 222.466 54.0694 218.044 54.0694C214.472 54.0694 211.197 52.6655 209.326 50.0724H209.324Z" fill="#231F20"/>
<path d="M228.295 26.5535H231.655V29.9133H228.295V26.5535ZM228.465 33.4855H231.485V53.5597H228.465V33.4855Z" fill="#231F20"/>
<path d="M234.12 57.5566C234.12 55.3883 235.736 53.7721 238.289 52.9628C235.991 52.4934 234.632 51.1767 234.632 49.4331C234.632 47.6045 235.951 46.3281 238.289 45.8184C236.545 44.5419 235.439 42.5435 235.439 40.1627C235.439 35.9512 238.968 32.8484 243.604 32.8484C246.665 32.8484 249.175 34.2098 250.536 36.3781C251.133 34.677 252.322 33.4855 254.535 33.4855V36.5905C253.301 36.1658 252.07 36.5056 251.218 37.8647C251.473 38.5867 251.6 39.396 251.6 40.2052C251.6 44.5844 248.368 47.3921 243.435 47.3921C242.413 47.3921 241.479 47.2647 240.627 46.9674C238.162 46.7975 237.225 47.7744 237.225 48.9234C237.225 50.2848 238.799 51.0918 241.434 51.0918H245.048C251.428 51.0918 254.363 52.8779 254.363 56.7049C254.363 60.532 250.536 62.9999 243.902 62.9999C237.267 62.9999 234.12 61.1713 234.12 57.5566ZM251.685 56.8748C251.685 54.579 249.857 53.7273 244.881 53.7273H241.906C238.928 53.9822 236.76 55.3436 236.76 57.2996C236.76 59.5529 239.143 60.7019 243.946 60.7019C248.75 60.7019 251.687 59.298 251.687 56.8748H251.685ZM248.878 40.2477V40.1627C248.878 37.1851 246.709 35.1867 243.562 35.1867C240.415 35.1867 238.246 37.1851 238.246 40.1203V40.2052C238.246 43.1806 240.287 45.0539 243.477 45.0539C246.837 45.0539 248.878 43.2253 248.878 40.2499V40.2477Z" fill="#231F20"/>
<path d="M257.385 24.8948H260.277V38.0347C261.426 34.8872 263.594 33.1011 266.997 33.1011C271.248 33.1011 273.971 35.9065 273.971 41.01V53.5553H270.951V41.1799C270.951 37.5652 269.25 35.6942 266.272 35.6942C262.276 35.6942 260.277 39.0115 260.277 44.8796V53.5553H257.385V24.8948Z" fill="#231F20"/>
<path d="M278.906 48.7961V36.0385H275.292V33.4878H278.906V29.2785L281.799 27.3225V33.4878H286.562V36.0385H281.756V48.4585C281.756 50.2447 282.396 50.9667 284.139 51.0092H286.477V53.5598H283.458C279.97 53.4749 278.949 51.9436 278.906 48.7961Z" fill="#231F20"/>
<path d="M287.841 50.0724L290.264 48.6686C291.88 50.7945 294.39 51.6461 296.643 51.6461C299.408 51.6461 301.152 50.3272 301.152 48.1589C301.152 45.9905 298.602 45.3936 295.242 44.5867C291.33 43.6925 288.395 42.6306 288.395 38.8885C288.395 35.5287 291.458 33.063 295.497 33.063C298.899 33.063 301.621 34.5093 303.662 36.8901L301.282 38.3364C299.835 36.5078 297.71 35.4862 295.456 35.4862C292.904 35.4862 291.245 36.7626 291.245 38.7186C291.245 40.887 293.031 41.314 296.688 42.0785C300.26 42.8855 304.002 44.1194 304.002 47.9465C304.002 51.5612 300.982 54.0694 296.561 54.0694C292.989 54.0694 289.714 52.6655 287.843 50.0724H287.841Z" fill="#231F20"/>
<path d="M40.9544 54.1321C24.6278 53.8728 11.4619 38.6114 11.4619 38.6114C11.4619 38.6114 24.6278 23.3501 40.9544 23.0908C38.6073 34.3619 36.7006 36.2642 25.4303 38.6114C36.7006 40.9631 38.6073 42.8655 40.9544 54.1321Z" fill="black"/>
<path d="M71.2999 38.6115C71.2999 38.6115 57.906 54.1411 41.3827 54.1411C41.2419 54.1411 41.0966 54.1411 40.958 54.1344C43.3051 42.8678 45.2073 40.9632 56.4777 38.6138C45.2073 36.2665 43.3051 34.362 40.958 23.0931C41.0988 23.0864 41.2441 23.0864 41.3827 23.0864C57.906 23.0864 71.2999 38.616 71.2999 38.616" fill="black"/>
<path d="M41.3791 14.4105C40.6437 14.4105 40.0469 13.8137 40.0469 13.0782V2.19389C40.0469 1.45843 40.6437 0.861572 41.3791 0.861572C42.1145 0.861572 42.7113 1.45843 42.7113 2.19389V13.076C42.7113 13.8114 42.1145 14.4083 41.3791 14.4083V14.4105Z" fill="black"/>
<path d="M24.3761 17.6787C23.9156 17.6787 23.4686 17.4395 23.2205 17.0125L17.7798 7.58795C17.4109 6.95085 17.63 6.13491 18.2671 5.7683C18.9041 5.39946 19.72 5.61853 20.0866 6.25563L25.5273 15.6802C25.8961 16.3173 25.6771 17.1332 25.04 17.4999C24.8299 17.6206 24.6019 17.6787 24.3739 17.6787H24.3761Z" fill="black"/>
<path d="M10.7566 26.6071C10.5308 26.6071 10.3006 26.5489 10.0905 26.4282L0.666474 20.9872C0.0294152 20.6183 -0.189644 19.8046 0.17918 19.1653C0.548003 18.5282 1.36165 18.3091 2.00094 18.678L11.4249 24.119C12.062 24.4879 12.2811 25.3016 11.9122 25.9409C11.6664 26.3679 11.2171 26.6071 10.7566 26.6071Z" fill="black"/>
<path d="M71.2831 26.6071C70.8226 26.6071 70.3755 26.3679 70.1274 25.9409C69.7586 25.3038 69.9777 24.4879 70.6147 24.119L80.0387 18.678C80.6758 18.3091 81.4917 18.5282 81.8605 19.1653C82.2293 19.8024 82.0102 20.6183 81.3732 20.9872L71.9492 26.4282C71.7391 26.5489 71.5111 26.6071 71.2831 26.6071Z" fill="black"/>
<path d="M58.0953 17.6787C57.8695 17.6787 57.6393 17.6206 57.4292 17.4999C56.7921 17.131 56.5731 16.3173 56.9419 15.6802L62.3826 6.25563C62.7514 5.61853 63.565 5.39946 64.2021 5.7683C64.8392 6.13715 65.0582 6.95085 64.6894 7.58795L59.2487 17.0125C59.0028 17.4395 58.5535 17.6787 58.0931 17.6787H58.0953Z" fill="black"/>
</g>
<defs>
<clipPath id="clip0_211_1528">
<rect width="304" height="62.1384" fill="white" transform="translate(0 0.861572)"/>
</clipPath>
</defs>
</svg>
